<?xml version="1.0" encoding="UTF-8"?>
<!DOCTYPE svg PUBLIC "-//W3C//DTD SVG 1.1//EN" "http://www.w3.org/Graphics/SVG/1.1/DTD/svg11.dtd">
<!-- Creator: CorelDRAW X7 -->
<svg xmlns="http://www.w3.org/2000/svg" xml:space="preserve" width="3.96689in" height="0.720984in" version="1.1" style="shape-rendering:geometricPrecision; text-rendering:geometricPrecision; image-rendering:optimizeQuality; fill-rule:evenodd; clip-rule:evenodd"
viewBox="0 0 3163 575"
 xmlns:xlink="http://www.w3.org/1999/xlink">
 <defs>
  <style type="text/css">
   <![CDATA[
    .str0 {stroke:#BB2B00;stroke-width:55.343}
    .str1 {stroke:#BB2B00;stroke-width:2.39175}
    .str2 {stroke:#FE1A00;stroke-width:2.39175}
    .fil3 {fill:#322B2A}
    .fil1 {fill:#BB2B00}
    .fil4 {fill:#BB2B00}
    .fil2 {fill:#FE1A00}
    .fil0 {fill:#FFCE00}
   ]]>
  </style>
 </defs>
 <g id="Layer_x0020_1">
  <metadata id="CorelCorpID_0Corel-Layer"/>
  <g id="_2715271962320">
   <path class="fil0 str0" d="M85 28l398 0c32,0 57,28 57,63l0 393c0,35 -25,63 -57,63l-398 0c-32,0 -57,-28 -57,-63l0 -393c0,-35 25,-63 57,-63z"/>
   <path class="fil1 str1" d="M128 409l0 7 74 0 16 -29c-4,-3 -5,-3 -8,-5 -5,-3 0,-2 -6,-5 -45,-23 -53,-73 -36,-120l59 2c4,-2 9,-2 14,-2 -4,14 -12,29 -7,49 2,6 5,9 7,14l8 8 54 -92 -14 -1 -109 1c1,-4 1,-5 5,-7l107 0 -108 0c4,-10 17,-21 23,-27 9,-8 19,-14 31,-19 14,-5 77,-3 97,-3l34 -61 -15 0 -226 0 0 290 0 0z"/>
   <path class="fil2 str2" d="M369 172l-3 7 38 1 16 0 -48 57 -36 0 -55 96 -3 7 72 1 17 -1c-4,6 -8,10 -12,15 -4,5 -31,41 -35,41l-73 0c-5,2 -15,23 -17,27 -5,10 -12,19 -16,29l-4 7c80,0 160,0 241,-1l-1 -297 0 0 -73 0 -8 11 0 0z"/>
   <polygon class="fil3" points="128,409 128,119 354,119 358,113 118,113 118,409 "/>
   <path class="fil3" d="M281 333l55 -96 36 0 48 -57 -16 0c-2,2 -3,4 -5,6 -2,3 -3,3 -6,6l-26 32c-10,9 -9,6 -41,6 -8,15 -55,94 -59,103l14 0 0 0z"/>
   <path class="fil3" d="M214 452c4,-10 11,-19 16,-29 2,-4 12,-25 17,-27l73 0c4,0 31,-36 35,-41 4,-5 8,-9 12,-15l-17 1c-2,3 -7,9 -9,12l-21 25c-3,4 -6,9 -11,12l-74 0c-6,7 -13,21 -18,30 -6,11 -13,21 -18,32l15 0 0 0z"/>
   <path class="fil3" d="M289 235l3 -6 -107 0c-4,2 -4,3 -5,7l109 -1z"/>
   <polygon class="fil3" points="369,172 377,161 440,160 440,154 367,154 356,172 "/>
   <path class="fil3" d="M227 259c-4,18 -10,31 2,50 4,6 6,9 10,13l2 -2c-2,-5 -5,-8 -7,-14 -5,-20 3,-35 7,-49 -5,0 -10,0 -14,2z"/>
  </g>
  <g id="_2715271965328">
   <path class="fil4" d="M1729 489l17 -86 -34 0c0,0 -127,3 -155,3l10 -18 179 -291 -36 0 -272 4 -17 79 132 0 42 3c-13,15 -31,50 -44,71 -18,25 -32,51 -47,75l-101 158c-5,9 -6,0 326,2z"/>
   <path class="fil4" d="M2178 431c32,33 39,36 78,52 66,27 126,8 179,-18 0,0 8,-110 8,-110 -11,10 -20,19 -31,25 -38,15 -90,38 -135,11 -13,-8 -26,-17 -35,-31 -29,-43 -30,-86 -13,-133 7,-20 31,-46 52,-54 43,-18 83,-13 93,-7 6,2 53,32 74,52 0,0 4,-68 7,-101 0,0 -44,-33 -79,-36 -236,-37 -308,203 -213,333l15 17 0 0z"/>
   <path class="fil4" d="M1940 281l14 -34 48 118 -98 0c5,-19 27,-68 36,-84l0 0zm0 -173l-184 381 0 0 97 0c0,0 21,-56 21,-56l132 0 20 0c0,0 22,38 31,56l101 0c-17,-32 -32,-64 -49,-97 -19,-38 -142,-289 -144,-309 -14,1 -10,-3 -20,15 0,1 -4,9 -5,10l0 0z"/>
   <path class="fil4" d="M2983 248l0 -89 48 4c33,9 57,34 37,76 -12,24 -47,28 -84,28l-1 -19zm-99 222l0 18 99 0 0 -146c74,0 149,-14 174,-88 12,-36 4,-84 -12,-110 -16,-23 -50,-49 -83,-53 -58,-9 -116,-6 -176,-6l-2 385 0 0z"/>
   <path class="fil4" d="M758 467l0 15 91 0 0 -152 137 0 0 -81 -31 -1 -104 0c0,-17 -2,-53 -2,-75l152 0 0 -82 -30 -1 -213 1 0 376 0 0z"/>
   <path class="fil4" d="M2644 281l15 -34 47 118 -98 0c6,-19 27,-68 36,-84zm1 -173l-185 381 0 0 98 0c0,0 20,-56 20,-56l132 0 20 0c0,0 22,38 31,56l101 0c-17,-32 -32,-64 -49,-97 -19,-38 -142,-289 -144,-309 -15,1 -10,-3 -20,15 0,1 -4,9 -4,10l0 0z"/>
   <path class="fil4" d="M1161 281l15 -34 47 118 -97 0c5,-19 26,-68 35,-84l0 0zm1 -173l-184 381 0 0 97 0c0,0 20,-56 20,-56l132 0 21 0c0,0 30,56 30,56l101 0c-17,-32 -32,-64 -49,-97 -19,-38 -142,-289 -143,-309 -14,2 -11,-3 -21,15 0,1 -4,9 -4,10z"/>
  </g>
 </g>
</svg>
